<?xml version="1.0" encoding="UTF-8" ?>
<!DOCTYPE svg PUBLIC "-//W3C//DTD SVG 1.1//EN" "http://www.w3.org/Graphics/SVG/1.1/DTD/svg11.dtd">
<svg width="32pt" height="32pt" viewBox="0 0 32 32" version="1.1" xmlns="http://www.w3.org/2000/svg">
<g id="#010103fb">
<path fill="#010103" opacity="1.00" d=" M 12.46 2.50 C 21.98 -0.72 32.12 9.45 29.95 18.95 C 28.32 26.95 18.58 32.95 10.98 29.01 C 4.92 26.58 0.58 19.70 2.10 13.15 C 3.72 8.35 7.26 3.63 12.46 2.50 M 2.27 18.72 C 5.79 18.28 9.61 18.37 12.86 16.83 C 15.60 15.51 18.31 14.13 21.11 12.97 C 22.90 11.52 24.61 9.98 26.27 8.39 C 24.87 7.28 23.47 6.19 22.05 5.10 C 20.97 4.31 19.88 3.52 18.81 2.71 C 9.93 2.63 2.70 9.87 2.27 18.72 M 23.51 15.32 C 23.98 16.12 24.45 16.92 24.92 17.73 C 22.66 17.19 20.38 16.75 18.08 16.47 C 18.77 18.22 19.47 19.96 20.19 21.70 C 18.04 20.36 15.85 19.07 13.50 18.11 C 13.65 19.76 13.81 21.40 13.95 23.04 C 13.28 22.24 12.62 21.43 11.96 20.63 C 10.37 21.11 8.78 21.59 7.15 21.95 L 7.09 22.25 C 5.31 19.23 3.81 24.99 6.80 23.61 L 6.60 24.46 L 7.70 24.80 C 10.68 26.39 13.42 29.27 17.03 29.13 C 22.50 27.12 27.44 23.76 28.95 17.90 C 29.03 15.93 28.85 13.97 28.70 12.01 C 27.03 13.21 25.31 14.32 23.51 15.32 Z" />
</g>
<g id="#34527afe">
<path fill="#34527a" opacity="1.00" d=" M 2.27 18.72 C 2.70 9.87 9.93 2.63 18.81 2.71 C 18.91 8.06 16.81 13.20 12.86 16.83 C 9.61 18.37 5.79 18.28 2.27 18.72 Z" />
</g>
<g id="#34347aff">
<path fill="#34347a" opacity="1.00" d=" M 18.81 2.71 C 19.88 3.52 20.97 4.31 22.05 5.10 C 21.74 7.72 21.42 10.34 21.11 12.97 C 18.31 14.13 15.60 15.51 12.86 16.83 C 16.81 13.20 18.91 8.06 18.81 2.71 Z" />
<path fill="#34347a" opacity="1.00" d=" M 7.70 24.80 C 11.15 25.82 14.52 27.10 17.82 28.53 L 17.03 29.13 C 13.42 29.27 10.68 26.39 7.70 24.80 Z" />
</g>
<g id="#231758ff">
<path fill="#231758" opacity="1.00" d=" M 22.05 5.10 C 23.47 6.19 24.87 7.28 26.27 8.39 C 24.61 9.98 22.90 11.52 21.11 12.97 C 21.42 10.34 21.74 7.72 22.05 5.10 Z" />
<path fill="#231758" opacity="1.00" d=" M 6.80 23.61 C 3.81 24.99 5.31 19.23 7.09 22.25 C 7.02 22.59 6.87 23.27 6.80 23.61 Z" />
</g>
<g id="#325078ff">
<path fill="#325078" opacity="1.00" d=" M 23.51 15.32 C 25.31 14.32 27.03 13.21 28.70 12.01 C 28.85 13.97 29.03 15.93 28.95 17.90 C 25.86 22.04 21.85 25.35 17.82 28.53 C 14.52 27.10 11.15 25.82 7.70 24.80 L 6.60 24.46 L 6.80 23.61 C 6.87 23.27 7.02 22.59 7.09 22.25 L 7.15 21.95 C 8.78 21.59 10.37 21.11 11.96 20.63 C 12.62 21.43 13.28 22.24 13.95 23.04 C 13.81 21.40 13.65 19.76 13.50 18.11 C 15.85 19.07 18.04 20.36 20.19 21.70 C 19.47 19.96 18.77 18.22 18.08 16.47 C 20.38 16.75 22.66 17.19 24.92 17.73 C 24.45 16.92 23.98 16.12 23.51 15.32 Z" />
</g>
<g id="#25235dff">
<path fill="#25235d" opacity="1.00" d=" M 17.82 28.53 C 21.85 25.35 25.86 22.04 28.95 17.90 C 27.44 23.76 22.50 27.12 17.03 29.13 L 17.82 28.53 Z" />
</g>
</svg>
